<svg width="56" height="44" viewBox="0 0 56 44" fill="none" xmlns="http://www.w3.org/2000/svg">
<mask id="mask0_79_757" style="mask-type:luminance" maskUnits="userSpaceOnUse" x="0" y="0" width="24" height="15">
<path d="M0 0H23.6164V14.0456H0V0Z" fill="white"/>
</mask>
<g mask="url(#mask0_79_757)">
<path fill-rule="evenodd" clip-rule="evenodd" d="M23.4694 0.0976562C22.6087 0.739672 21.8338 1.47091 21.1463 2.29486C20.457 3.11706 19.871 4.00748 19.3917 4.96789C18.9106 5.92654 18.5467 6.92892 18.3001 7.97329C18.0534 9.01766 17.9309 10.076 17.9327 11.1501V13.9299H0C0 13.4768 0.0227415 13.0237 0.0682251 12.5741C0.111959 12.1228 0.178435 11.6749 0.265903 11.2306C0.35512 10.7863 0.46533 10.3472 0.596532 9.91509C0.727734 9.48124 0.879928 9.0544 1.05312 8.6363C1.2263 8.2182 1.42048 7.80885 1.6339 7.41C1.84732 7.00939 2.07999 6.62103 2.3319 6.24492C2.58381 5.86881 2.85321 5.50494 3.1401 5.15507C3.427 4.80519 3.73139 4.46932 4.05152 4.14918C4.37165 3.82905 4.70753 3.52466 5.0574 3.23776C5.40727 2.95087 5.77114 2.67972 6.14725 2.42956C6.52512 2.17765 6.91347 1.94498 7.31233 1.73156C7.71118 1.51814 8.12053 1.32396 8.53863 1.15077C8.95848 0.977586 9.38357 0.825392 9.81741 0.694189C10.2513 0.561238 10.6903 0.452777 11.1347 0.36356C11.579 0.276091 12.0251 0.209616 12.4764 0.164132C12.9278 0.120398 13.3791 0.0976562 13.8322 0.0976562H23.4694Z" fill="#F8B730"/>
</g>
<mask id="mask1_79_757" style="mask-type:luminance" maskUnits="userSpaceOnUse" x="20" y="0" width="36" height="44">
<path d="M20.4766 0H55.0789V44H20.4766V0Z" fill="white"/>
</mask>
<g mask="url(#mask1_79_757)">
<path fill-rule="evenodd" clip-rule="evenodd" d="M55.1689 0.0976562C55.1689 0.528 55.1496 0.956594 55.1094 1.38519C55.0691 1.81378 55.0097 2.24063 54.9292 2.66222C54.8505 3.08557 54.7508 3.50367 54.6318 3.91652C54.5129 4.33112 54.3746 4.73872 54.219 5.13932C54.0615 5.53993 53.8866 5.93178 53.6924 6.31665C53.5 6.69976 53.2883 7.07412 53.0609 7.43974C52.8317 7.8036 52.5868 8.15698 52.3261 8.49985C52.0655 8.84098 51.7873 9.16986 51.4952 9.48649C51.2048 9.80138 50.8987 10.104 50.5785 10.3909C50.2584 10.6796 49.9243 10.9507 49.5797 11.2079C49.2333 11.4633 48.8764 11.7029 48.509 11.9269C48.1417 12.149 47.7638 12.3554 47.3772 12.5426C46.9888 12.7316 46.5952 12.8995 46.1911 13.0517C45.7888 13.2021 45.3794 13.3351 44.9648 13.4471C44.5485 13.5608 44.1304 13.6535 43.7053 13.727C43.282 13.8004 42.8551 13.8547 42.4265 13.8879C42.0661 13.9159 41.704 13.9299 41.3367 13.9299H36.351C36.2303 13.9299 36.1096 13.9421 35.9906 13.9666C35.8717 13.9894 35.7562 14.0243 35.6425 14.0716C35.5305 14.1188 35.4238 14.1748 35.3224 14.243C35.2226 14.3095 35.1282 14.3865 35.0425 14.4722C34.9567 14.5596 34.8798 14.6524 34.8116 14.7538C34.7451 14.8553 34.6873 14.962 34.6419 15.074C34.5946 15.1859 34.5596 15.3014 34.5352 15.4203C34.5124 15.541 34.5002 15.66 34.5002 15.7825V43.9822C34.0471 43.9822 33.5957 43.9595 33.1444 43.9157C32.6931 43.8702 32.2452 43.8038 31.8009 43.7163C31.3566 43.6271 30.9192 43.5186 30.4854 43.3857C30.0515 43.2545 29.6247 43.1023 29.2066 42.9291C28.7885 42.7559 28.3792 42.5617 27.9803 42.3483C27.5797 42.1349 27.1931 41.9022 26.8152 41.6503C26.4391 41.4001 26.0752 41.129 25.7254 40.8421C25.3755 40.5552 25.0396 40.2508 24.7195 39.9307C24.3994 39.6105 24.095 39.2747 23.8081 38.9248C23.5212 38.5749 23.2518 38.211 22.9999 37.8349C22.748 37.4588 22.5153 37.0705 22.3019 36.6699C22.0884 36.271 21.8943 35.8617 21.7211 35.4436C21.5479 35.0255 21.3957 34.5986 21.2645 34.1648C21.1333 33.7327 21.0231 33.2936 20.9339 32.8492C20.8464 32.4049 20.7799 31.9571 20.7344 31.5057C20.6907 31.0562 20.668 30.6031 20.668 30.15V11.1501C20.668 10.788 20.6855 10.4259 20.7222 10.0655C20.7572 9.70691 20.8097 9.34829 20.8814 8.99317C20.9514 8.63805 21.0388 8.28818 21.1438 7.9418C21.2488 7.59543 21.3712 7.2543 21.5094 6.92018C21.6476 6.58605 21.8016 6.25892 21.973 5.94053C22.1427 5.6204 22.3299 5.31076 22.531 5.00987C22.7322 4.70898 22.9474 4.41859 23.1766 4.13869C23.4057 3.85879 23.6489 3.59114 23.9043 3.33573C24.1597 3.07857 24.4291 2.83716 24.7072 2.60624C24.9871 2.37708 25.2775 2.16191 25.5784 1.96073C25.8793 1.75955 26.1907 1.57412 26.5091 1.40268C26.8275 1.23299 27.1546 1.0773 27.4887 0.9391C27.8229 0.8009 28.164 0.678445 28.5104 0.573483C28.8567 0.468521 29.2066 0.381053 29.5617 0.311079C29.9168 0.239355 30.2755 0.186874 30.6358 0.151887C30.9944 0.11515 31.3566 0.0976562 31.7187 0.0976562H55.1689Z" fill="#EC008C"/>
</g>
</svg>