<svg width="1299" height="1298" xmlns="http://www.w3.org/2000/svg" xmlns:xlink="http://www.w3.org/1999/xlink" xml:space="preserve" overflow="hidden"><g transform="matrix(1 0 0 1 0 -1)"><g><g><g><path d="M1860.58 1535.3 1860.58 1374.58C1860.58 1197.05 1715.26 1053.14 1535.98 1053.14L1535.98 1213.86C1535.98 1391.39 1681.32 1535.3 1860.58 1535.3 1681.3 1535.3 1535.98 1679.21 1535.98 1856.74L1535.98 1535.3 1535.98 1374.58C1535.98 1197.05 1390.67 1053.14 1211.39 1053.14L886.818 1053.14 886.818 1535.3 1211.41 1535.3 1211.41 1213.86C1211.41 1391.39 1356.73 1535.3 1536 1535.3L1211.41 1535.3 1211.41 2017.46 1536 2017.46C1715.28 2017.46 1860.6 1873.56 1860.6 1696.02L1860.6 1535.3 1860.58 1535.3Z" fill="#FFFFFF" fill-rule="evenodd" transform="matrix(1 0 0 1.00081 -886.799 -886.156)"/><path d="M2183.93 1537.19C2005.36 1537.19 1860.6 1680.54 1860.6 1857.38L1860.6 2017.46C2039.17 2017.46 2183.93 1874.12 2183.93 1697.29L2183.93 1537.19Z" fill="#FFFFFF" fill-rule="evenodd" transform="matrix(1 0 0 1.00081 -886.799 -886.156)"/></g></g></g></g></svg>