<svg width="837" height="151" xmlns="http://www.w3.org/2000/svg" xmlns:xlink="http://www.w3.org/1999/xlink" xml:space="preserve" overflow="hidden"><defs><clipPath id="clip0"><rect x="1781" y="1162" width="837" height="151"/></clipPath></defs><g clip-path="url(#clip0)" transform="translate(-1781 -1162)"><path d="M1861 1162C1858.07 1164.23 1855.42 1166.77 1853.08 1169.62 1850.73 1172.48 1848.73 1175.57 1847.1 1178.9 1845.46 1182.23 1844.22 1185.71 1843.38 1189.33 1842.54 1192.95 1842.12 1196.63 1842.13 1200.35L1842.13 1210 1781 1210C1781 1208.43 1781.08 1206.86 1781.23 1205.3 1781.38 1203.73 1781.61 1202.17 1781.91 1200.63 1782.21 1199.09 1782.59 1197.57 1783.03 1196.07 1783.48 1194.56 1784 1193.08 1784.59 1191.63 1785.18 1190.18 1785.84 1188.76 1786.57 1187.37 1787.3 1185.98 1788.09 1184.64 1788.95 1183.33 1789.81 1182.03 1790.73 1180.76 1791.7 1179.55 1792.68 1178.34 1793.72 1177.17 1794.81 1176.06 1795.9 1174.95 1797.05 1173.89 1798.24 1172.9 1799.43 1171.9 1800.67 1170.96 1801.95 1170.09 1803.24 1169.22 1804.57 1168.41 1805.93 1167.67 1807.29 1166.93 1808.68 1166.26 1810.11 1165.65 1811.54 1165.05 1812.99 1164.53 1814.46 1164.07 1815.94 1163.61 1817.44 1163.23 1818.95 1162.92 1820.47 1162.62 1821.99 1162.39 1823.53 1162.23 1825.07 1162.08 1826.61 1162 1828.15 1162L1861 1162Z" fill="#F8B730" fill-rule="evenodd"/><path d="M1970 1162C1970 1163.48 1969.93 1164.96 1969.8 1166.43 1969.66 1167.9 1969.46 1169.37 1969.18 1170.82 1968.91 1172.28 1968.57 1173.72 1968.16 1175.14 1967.76 1176.57 1967.28 1177.97 1966.75 1179.35 1966.21 1180.73 1965.61 1182.07 1964.95 1183.4 1964.29 1184.72 1963.57 1186.01 1962.79 1187.26 1962.01 1188.51 1961.17 1189.73 1960.28 1190.91 1959.39 1192.08 1958.43 1193.22 1957.44 1194.31 1956.44 1195.39 1955.4 1196.43 1954.3 1197.42 1953.21 1198.41 1952.06 1199.34 1950.88 1200.23 1949.7 1201.11 1948.48 1201.93 1947.22 1202.7 1945.97 1203.47 1944.67 1204.18 1943.35 1204.82 1942.02 1205.47 1940.68 1206.05 1939.29 1206.57 1937.92 1207.09 1936.52 1207.55 1935.1 1207.93 1933.68 1208.32 1932.25 1208.64 1930.79 1208.9 1929.34 1209.15 1927.88 1209.34 1926.42 1209.45 1925.19 1209.55 1923.95 1209.59 1922.69 1209.59L1905.64 1209.59C1905.23 1209.59 1904.81 1209.64 1904.41 1209.72 1904 1209.8 1903.6 1209.92 1903.22 1210.08 1902.83 1210.24 1902.47 1210.44 1902.12 1210.67 1901.78 1210.9 1901.46 1211.17 1901.16 1211.46 1900.87 1211.76 1900.61 1212.08 1900.37 1212.43 1900.15 1212.78 1899.95 1213.15 1899.79 1213.53 1899.63 1213.92 1899.51 1214.31 1899.43 1214.72 1899.35 1215.14 1899.31 1215.55 1899.31 1215.97L1899.31 1313C1897.76 1313 1896.22 1312.92 1894.67 1312.77 1893.13 1312.61 1891.6 1312.39 1890.08 1312.09 1888.56 1311.78 1887.06 1311.41 1885.58 1310.95 1884.09 1310.5 1882.63 1309.97 1881.2 1309.38 1879.77 1308.78 1878.37 1308.11 1877.01 1307.38 1875.64 1306.64 1874.32 1305.84 1873.02 1304.98 1871.74 1304.12 1870.49 1303.18 1869.3 1302.2 1868.1 1301.21 1866.95 1300.16 1865.86 1299.06 1864.76 1297.96 1863.72 1296.8 1862.74 1295.6 1861.76 1294.39 1860.84 1293.14 1859.98 1291.85 1859.11 1290.55 1858.32 1289.22 1857.59 1287.84 1856.86 1286.47 1856.19 1285.06 1855.6 1283.62 1855.01 1282.18 1854.49 1280.71 1854.04 1279.22 1853.59 1277.73 1853.21 1276.22 1852.91 1274.69 1852.61 1273.16 1852.38 1271.62 1852.23 1270.07 1852.08 1268.52 1852 1266.96 1852 1265.41L1852 1200.03C1852 1198.78 1852.06 1197.54 1852.19 1196.3 1852.31 1195.06 1852.48 1193.83 1852.73 1192.61 1852.97 1191.39 1853.27 1190.18 1853.63 1188.99 1853.99 1187.8 1854.41 1186.62 1854.88 1185.48 1855.35 1184.33 1855.88 1183.2 1856.46 1182.1 1857.04 1181 1857.68 1179.94 1858.37 1178.9 1859.06 1177.87 1859.8 1176.87 1860.58 1175.9 1861.36 1174.94 1862.2 1174.02 1863.07 1173.14 1863.94 1172.26 1864.86 1171.43 1865.81 1170.63 1866.77 1169.84 1867.77 1169.1 1868.79 1168.41 1869.82 1167.72 1870.89 1167.08 1871.98 1166.49 1873.07 1165.91 1874.19 1165.37 1875.33 1164.9 1876.47 1164.42 1877.64 1164 1878.82 1163.64 1880.01 1163.28 1881.2 1162.97 1882.42 1162.73 1883.63 1162.49 1884.86 1162.31 1886.09 1162.19 1887.32 1162.06 1888.56 1162 1889.8 1162L1970 1162Z" fill="#EC008C" fill-rule="evenodd"/><path d="M2026 1305 2026 1302 2011.42 1302 2011.42 1292.69 2025.73 1292.69 2025.73 1289.69 2011.42 1289.69 2011.42 1281 2026 1281 2026 1278 2008 1278 2008 1305 2026 1305Z" fill="#343A40" fill-rule="evenodd"/><path d="M2031 1302.84C2033.04 1305.01 2035.85 1306 2039.11 1306 2044.33 1306 2047 1303.29 2047 1299.95 2047 1295.52 2042.97 1294.53 2039.48 1293.76 2036.89 1293.13 2034.58 1292.5 2034.58 1290.55 2034.58 1288.79 2036.3 1287.53 2039.02 1287.53 2041.61 1287.53 2043.83 1288.61 2045.01 1290.06L2046.46 1287.89C2044.87 1286.31 2042.42 1285 2039.02 1285 2034.26 1285 2031.54 1287.66 2031.54 1290.78 2031.54 1294.89 2035.4 1295.79 2038.84 1296.61 2041.52 1297.28 2043.96 1297.96 2043.96 1300.17 2043.96 1302.12 2042.33 1303.47 2039.25 1303.47 2036.48 1303.47 2033.95 1302.16 2032.63 1300.63L2031 1302.84Z" fill="#343A40" fill-rule="evenodd"/><path d="M2053 1295.48C2053 1301.44 2057.18 1306 2063.39 1306 2067.19 1306 2069.4 1304.51 2071 1302.52L2068.89 1300.63C2067.48 1302.39 2065.74 1303.25 2063.57 1303.25 2059.11 1303.25 2056.38 1299.9 2056.38 1295.48 2056.38 1291.05 2059.11 1287.8 2063.57 1287.8 2065.74 1287.8 2067.48 1288.57 2068.89 1290.37L2071 1288.48C2069.4 1286.49 2067.19 1285 2063.39 1285 2057.18 1285 2053 1289.56 2053 1295.48Z" fill="#343A40" fill-rule="evenodd"/><path d="M2094 1305.49 2094 1285 2090.85 1285 2090.85 1300.08C2089.65 1301.7 2087.28 1303.18 2084.78 1303.18 2082 1303.18 2080.2 1302.11 2080.2 1298.51L2080.2 1285 2077 1285 2077 1299.48C2077 1303.92 2079.22 1306 2083.53 1306 2086.59 1306 2089.28 1304.38 2090.85 1302.62L2090.85 1305.49 2094 1305.49Z" fill="#343A40" fill-rule="evenodd"/><path d="M2101 1295.48C2101 1301.76 2105.19 1306 2110.96 1306 2114.14 1306 2116.78 1304.92 2118.72 1302.93L2117.27 1300.9C2115.72 1302.52 2113.48 1303.43 2111.23 1303.43 2107.04 1303.43 2104.44 1300.26 2104.22 1296.52L2120 1296.52 2120 1295.75C2120 1289.74 2116.52 1285 2110.61 1285 2105.06 1285 2101 1289.7 2101 1295.48ZM2110.57 1287.57C2115.02 1287.57 2116.96 1291.28 2117 1294.26L2104.22 1294.26C2104.35 1291.19 2106.42 1287.57 2110.57 1287.57Z" fill="#343A40" fill-rule="evenodd"/><path d="M2130 1305 2130 1278 2127 1278 2127 1305 2130 1305Z" fill="#343A40" fill-rule="evenodd"/><path d="M2154 1305.5 2154 1291.77C2154 1286.9 2150.46 1285 2146.14 1285 2142.83 1285 2140.21 1286.08 2138.01 1288.3L2139.48 1290.46C2141.32 1288.57 2143.29 1287.71 2145.73 1287.71 2148.67 1287.71 2150.87 1289.25 2150.87 1291.91L2150.87 1295.52C2149.22 1293.67 2146.92 1292.77 2144.12 1292.77 2140.68 1292.77 2137 1294.89 2137 1299.36 2137 1303.74 2140.68 1306 2144.12 1306 2146.88 1306 2149.17 1305.05 2150.87 1303.25L2150.87 1305.5 2154 1305.5ZM2150.87 1301.26C2149.64 1302.93 2147.48 1303.74 2145.27 1303.74 2142.33 1303.74 2140.26 1301.94 2140.26 1299.41 2140.26 1296.83 2142.33 1295.03 2145.27 1295.03 2147.48 1295.03 2149.64 1295.84 2150.87 1297.51L2150.87 1301.26Z" fill="#343A40" fill-rule="evenodd"/><path d="M2192 1305.51 2192 1278 2189.02 1278 2189.02 1288.61C2187.46 1286.4 2185.12 1285.1 2182.52 1285.1 2177.5 1285.1 2174 1289.24 2174 1295.57 2174 1302.05 2177.55 1306 2182.52 1306 2185.25 1306 2187.59 1304.56 2189.02 1302.54L2189.02 1305.51 2192 1305.51ZM2189.02 1300.11C2187.93 1301.82 2185.64 1303.26 2183.26 1303.26 2179.41 1303.26 2177.11 1299.98 2177.11 1295.57 2177.11 1291.17 2179.41 1287.89 2183.26 1287.89 2185.64 1287.89 2187.93 1289.37 2189.02 1291.08L2189.02 1300.11Z" fill="#343A40" fill-rule="evenodd"/><path d="M2199 1295.48C2199 1301.76 2203.41 1306 2209.49 1306 2212.83 1306 2215.61 1304.92 2217.65 1302.93L2216.12 1300.9C2214.5 1302.52 2212.13 1303.43 2209.77 1303.43 2205.36 1303.43 2202.62 1300.26 2202.39 1296.52L2219 1296.52 2219 1295.75C2219 1289.74 2215.34 1285 2209.12 1285 2203.27 1285 2199 1289.7 2199 1295.48ZM2209.07 1287.57C2213.76 1287.57 2215.8 1291.28 2215.85 1294.26L2202.39 1294.26C2202.53 1291.19 2204.71 1287.57 2209.07 1287.57Z" fill="#343A40" fill-rule="evenodd"/><path d="M2256 1305.51 2256 1278 2252.85 1278 2252.85 1288.61C2251.2 1286.4 2248.74 1285.1 2246 1285.1 2240.7 1285.1 2237 1289.24 2237 1295.57 2237 1302.05 2240.75 1306 2246 1306 2248.87 1306 2251.34 1304.56 2252.85 1302.54L2252.85 1305.51 2256 1305.51ZM2252.85 1300.11C2251.71 1301.82 2249.29 1303.26 2246.78 1303.26 2242.71 1303.26 2240.29 1299.98 2240.29 1295.57 2240.29 1291.17 2242.71 1287.89 2246.78 1287.89 2249.29 1287.89 2251.71 1289.37 2252.85 1291.08L2252.85 1300.11Z" fill="#343A40" fill-rule="evenodd"/><path d="M2263 1295.48C2263 1301.76 2267.41 1306 2273.49 1306 2276.83 1306 2279.61 1304.92 2281.65 1302.93L2280.12 1300.9C2278.5 1302.52 2276.13 1303.43 2273.77 1303.43 2269.36 1303.43 2266.62 1300.26 2266.39 1296.52L2283 1296.52 2283 1295.75C2283 1289.74 2279.33 1285 2273.12 1285 2267.27 1285 2263 1289.7 2263 1295.48ZM2273.07 1287.57C2277.76 1287.57 2279.8 1291.28 2279.85 1294.26L2266.39 1294.26C2266.53 1291.19 2268.71 1287.57 2273.07 1287.57Z" fill="#343A40" fill-rule="evenodd"/><path d="M2288 1302.84C2290.04 1305.01 2292.85 1306 2296.11 1306 2301.32 1306 2304 1303.29 2304 1299.95 2304 1295.52 2299.97 1294.53 2296.48 1293.76 2293.89 1293.13 2291.58 1292.5 2291.58 1290.55 2291.58 1288.79 2293.3 1287.53 2296.02 1287.53 2298.61 1287.53 2300.83 1288.61 2302.01 1290.06L2303.45 1287.89C2301.87 1286.31 2299.42 1285 2296.02 1285 2291.26 1285 2288.54 1287.66 2288.54 1290.78 2288.54 1294.89 2292.4 1295.79 2295.84 1296.61 2298.51 1297.28 2300.96 1297.96 2300.96 1300.17 2300.96 1302.12 2299.33 1303.47 2296.25 1303.47 2293.48 1303.47 2290.94 1302.16 2289.63 1300.63L2288 1302.84Z" fill="#343A40" fill-rule="evenodd"/><path d="M2327 1305.5 2327 1291.77C2327 1286.9 2323.46 1285 2319.14 1285 2315.84 1285 2313.22 1286.08 2311.01 1288.3L2312.48 1290.46C2314.32 1288.57 2316.29 1287.71 2318.73 1287.71 2321.67 1287.71 2323.87 1289.25 2323.87 1291.91L2323.87 1295.52C2322.22 1293.67 2319.92 1292.77 2317.12 1292.77 2313.68 1292.77 2310 1294.89 2310 1299.36 2310 1303.74 2313.68 1306 2317.12 1306 2319.88 1306 2322.18 1305.05 2323.87 1303.25L2323.87 1305.5 2327 1305.5ZM2323.87 1301.26C2322.64 1302.93 2320.48 1303.74 2318.27 1303.74 2315.33 1303.74 2313.26 1301.94 2313.26 1299.41 2313.26 1296.83 2315.33 1295.03 2318.27 1295.03 2320.48 1295.03 2322.64 1295.84 2323.87 1297.51L2323.87 1301.26Z" fill="#343A40" fill-rule="evenodd"/><path d="M2337.87 1305 2337.87 1291.11C2338.71 1289.56 2341.09 1288.01 2342.88 1288.01 2343.33 1288.01 2343.67 1288.05 2344 1288.14L2344 1285C2341.5 1285 2339.33 1286.5 2337.87 1288.58L2337.87 1285.4 2335 1285.4 2335 1305 2337.87 1305Z" fill="#343A40" fill-rule="evenodd"/><path d="M2353.19 1305 2353.19 1291.11C2354.12 1289.56 2356.76 1288.01 2358.75 1288.01 2359.26 1288.01 2359.63 1288.05 2360 1288.14L2360 1285C2357.22 1285 2354.82 1286.5 2353.19 1288.58L2353.19 1285.4 2350 1285.4 2350 1305 2353.19 1305Z" fill="#343A40" fill-rule="evenodd"/><path d="M2375 1306C2381.16 1306 2385 1301.26 2385 1295.48 2385 1289.7 2381.16 1285 2375 1285 2368.84 1285 2365 1289.7 2365 1295.48 2365 1301.26 2368.84 1306 2375 1306ZM2375 1303.25C2370.71 1303.25 2368.29 1299.59 2368.29 1295.48 2368.29 1291.41 2370.71 1287.8 2375 1287.8 2379.34 1287.8 2381.71 1291.41 2381.71 1295.48 2381.71 1299.59 2379.34 1303.25 2375 1303.25Z" fill="#343A40" fill-rule="evenodd"/><path d="M2395 1305 2395 1278 2392 1278 2392 1305 2395 1305Z" fill="#343A40" fill-rule="evenodd"/><path d="M2406 1305 2406 1278 2403 1278 2403 1305 2406 1305Z" fill="#343A40" fill-rule="evenodd"/><path d="M2423 1306C2429.16 1306 2433 1301.26 2433 1295.48 2433 1289.7 2429.16 1285 2423 1285 2416.83 1285 2413 1289.7 2413 1295.48 2413 1301.26 2416.83 1306 2423 1306ZM2423 1303.25C2418.71 1303.25 2416.29 1299.59 2416.29 1295.48 2416.29 1291.41 2418.71 1287.8 2423 1287.8 2427.34 1287.8 2429.71 1291.41 2429.71 1295.48 2429.71 1299.59 2427.34 1303.25 2423 1303.25Z" fill="#343A40" fill-rule="evenodd"/><path d="M2455.16 1302.39C2456.76 1304.64 2459.23 1305.9 2461.98 1305.9 2467.29 1305.9 2471 1301.85 2471 1295.43 2471 1288.95 2467.29 1285 2461.98 1285 2459.14 1285 2456.62 1286.44 2455.16 1288.46L2455.16 1285.49 2452 1285.49 2452 1313 2455.16 1313 2455.16 1302.39ZM2467.7 1295.43C2467.7 1299.83 2465.28 1303.16 2461.2 1303.16 2458.68 1303.16 2456.21 1301.67 2455.16 1299.92L2455.16 1290.93C2456.21 1289.22 2458.68 1287.79 2461.2 1287.79 2465.28 1287.79 2467.7 1291.02 2467.7 1295.43Z" fill="#343A40" fill-rule="evenodd"/><path d="M2477 1295.48C2477 1301.76 2481.41 1306 2487.49 1306 2490.83 1306 2493.61 1304.92 2495.65 1302.93L2494.12 1300.9C2492.5 1302.52 2490.13 1303.43 2487.77 1303.43 2483.36 1303.43 2480.62 1300.26 2480.39 1296.52L2497 1296.52 2497 1295.75C2497 1289.74 2493.33 1285 2487.12 1285 2481.27 1285 2477 1289.7 2477 1295.48ZM2487.07 1287.57C2491.76 1287.57 2493.8 1291.28 2493.85 1294.26L2480.39 1294.26C2480.53 1291.19 2482.71 1287.57 2487.07 1287.57Z" fill="#343A40" fill-rule="evenodd"/><path d="M2506.2 1305 2506.2 1291.11C2507.12 1289.56 2509.76 1288.01 2511.75 1288.01 2512.26 1288.01 2512.63 1288.05 2513 1288.14L2513 1285C2510.22 1285 2507.81 1286.5 2506.2 1288.58L2506.2 1285.4 2503 1285.4 2503 1305 2506.2 1305Z" fill="#343A40" fill-rule="evenodd"/><path d="M2517 1302.84C2519.04 1305.01 2521.85 1306 2525.11 1306 2530.32 1306 2533 1303.29 2533 1299.95 2533 1295.52 2528.97 1294.53 2525.48 1293.76 2522.89 1293.13 2520.58 1292.5 2520.58 1290.55 2520.58 1288.79 2522.3 1287.53 2525.02 1287.53 2527.61 1287.53 2529.83 1288.61 2531.01 1290.06L2532.45 1287.89C2530.87 1286.31 2528.42 1285 2525.02 1285 2520.26 1285 2517.54 1287.66 2517.54 1290.78 2517.54 1294.89 2521.4 1295.79 2524.84 1296.61 2527.51 1297.28 2529.96 1297.96 2529.96 1300.17 2529.96 1302.12 2528.33 1303.47 2525.25 1303.47 2522.48 1303.47 2519.94 1302.16 2518.63 1300.63L2517 1302.84Z" fill="#343A40" fill-rule="evenodd"/><path d="M2549 1306C2555.17 1306 2559 1301.26 2559 1295.48 2559 1289.7 2555.17 1285 2549 1285 2542.84 1285 2539 1289.7 2539 1295.48 2539 1301.26 2542.84 1306 2549 1306ZM2549 1303.25C2544.71 1303.25 2542.29 1299.59 2542.29 1295.48 2542.29 1291.41 2544.71 1287.8 2549 1287.8 2553.34 1287.8 2555.71 1291.41 2555.71 1295.48 2555.71 1299.59 2553.34 1303.25 2549 1303.25Z" fill="#343A40" fill-rule="evenodd"/><path d="M2583 1305 2583 1291.3C2583 1287.07 2580.77 1285 2576.47 1285 2573.41 1285 2570.63 1286.72 2569.2 1288.3L2569.2 1285.48 2566 1285.48 2566 1305 2569.2 1305 2569.2 1290.73C2570.35 1289.19 2572.76 1287.73 2575.26 1287.73 2578 1287.73 2579.85 1288.79 2579.85 1292.22L2579.85 1305 2583 1305Z" fill="#343A40" fill-rule="evenodd"/><path d="M2607 1305.5 2607 1291.77C2607 1286.9 2603.46 1285 2599.14 1285 2595.84 1285 2593.22 1286.08 2591.01 1288.3L2592.48 1290.46C2594.32 1288.57 2596.3 1287.71 2598.73 1287.71 2601.67 1287.71 2603.88 1289.25 2603.88 1291.91L2603.88 1295.52C2602.22 1293.67 2599.93 1292.77 2597.12 1292.77 2593.68 1292.77 2590 1294.89 2590 1299.36 2590 1303.74 2593.68 1306 2597.12 1306 2599.88 1306 2602.18 1305.05 2603.88 1303.25L2603.88 1305.5 2607 1305.5ZM2603.88 1301.26C2602.64 1302.93 2600.48 1303.74 2598.27 1303.74 2595.33 1303.74 2593.26 1301.94 2593.26 1299.41 2593.26 1296.83 2595.33 1295.03 2598.27 1295.03 2600.48 1295.03 2602.64 1295.84 2603.88 1297.51L2603.88 1301.26Z" fill="#343A40" fill-rule="evenodd"/><path d="M2618 1305 2618 1278 2615 1278 2615 1305 2618 1305Z" fill="#343A40" fill-rule="evenodd"/><path d="M2038.72 1243 2038.72 1171.32C2033.73 1171.32 2029.32 1172.31 2025.47 1174.27 2021.65 1176.22 2018.67 1178.91 2016.51 1182.36 2014.37 1185.8 2013.31 1189.76 2013.31 1194.27L2012 1194.27 2012 1170 2085 1170 2085 1194.27 2083.69 1194.27C2083.69 1189.76 2082.61 1185.8 2080.45 1182.36 2078.31 1178.91 2075.32 1176.22 2071.48 1174.27 2067.66 1172.31 2063.25 1171.32 2058.23 1171.32L2058.23 1243 2038.72 1243Z" fill="#343A40" fill-rule="evenodd"/><path d="M2127.49 1188C2130.05 1188 2132.52 1188.49 2134.91 1189.47 2137.29 1190.46 2139.22 1192.05 2140.72 1194.25 2142.24 1196.44 2143 1199.31 2143 1202.9 2143 1204.77 2142.67 1206.62 2142.02 1208.46 2141.39 1210.3 2140.32 1211.84 2138.8 1213.06 2137.3 1214.29 2135.28 1214.9 2132.72 1214.9 2130.15 1214.9 2128.13 1214.03 2126.68 1212.28 2125.25 1210.53 2124.44 1208.82 2124.27 1207.13 2124.27 1207.13 2124.81 1206.76 2125.92 1206.03 2127.05 1205.27 2128.13 1204.16 2129.19 1202.72 2130.26 1201.28 2130.79 1199.5 2130.79 1197.38 2130.79 1195.36 2130.21 1193.63 2129.05 1192.18 2127.91 1190.71 2126.41 1189.98 2124.54 1189.98 2122.12 1189.98 2119.91 1190.83 2117.92 1192.51 2115.92 1194.16 2114.19 1196.45 2112.73 1199.36L2112.73 1243 2094 1243 2094 1189.2 2112.73 1189.2 2112.73 1196.74C2114.34 1193.92 2116.33 1191.76 2118.72 1190.25 2121.14 1188.76 2124.05 1188 2127.49 1188Z" fill="#343A40" fill-rule="evenodd"/><path d="M2164.45 1244C2159.98 1244 2156.29 1242.78 2153.36 1240.34 2150.45 1237.87 2149 1234.89 2149 1231.38 2149 1228 2149.82 1225.29 2151.47 1223.25 2153.14 1221.18 2155.47 1219.44 2158.43 1218.03 2161.39 1216.64 2164.82 1215.22 2168.71 1213.78 2172.63 1212.35 2176.82 1210.54 2181.29 1208.34L2181.29 1198.88C2181.29 1195.84 2180.46 1193.51 2178.82 1191.89 2177.2 1190.27 2175.19 1189.46 2172.8 1189.46 2170.49 1189.46 2168.46 1190.08 2166.69 1191.29 2164.92 1192.51 2164.04 1194.66 2164.04 1197.74 2164.04 1199.75 2164.38 1201.28 2165.08 1202.31 2165.76 1203.35 2166.45 1204.05 2167.14 1204.41 2167.83 1204.75 2168.17 1204.91 2168.17 1204.91 2168.17 1206.14 2167.48 1207.5 2166.11 1208.98 2164.73 1210.48 2163.01 1211.31 2160.94 1211.5 2157.59 1211.84 2155.13 1210.99 2153.58 1208.98 2152.05 1206.97 2151.29 1204.75 2151.29 1202.31 2151.29 1199.6 2152.24 1197.18 2154.16 1195.04 2156.11 1192.91 2158.72 1191.2 2162.02 1189.92 2165.34 1188.64 2168.98 1188 2172.94 1188 2181.16 1188 2187.86 1190.15 2193.01 1194.45 2195.25 1196.27 2196.98 1198.46 2198.22 1200.98 2199.48 1203.52 2200.1 1206.45 2200.1 1209.76L2200.1 1231.52C2200.1 1232.69 2200.22 1233.71 2200.47 1234.63 2200.73 1235.54 2201.29 1236 2202.17 1236 2202.59 1236 2202.96 1235.75 2203.29 1235.22 2203.65 1234.67 2203.88 1233.44 2203.97 1231.52L2205 1231.66C2205 1235.07 2203.81 1237.99 2201.45 1240.39 2199.08 1242.79 2196.22 1244 2192.87 1244 2189.88 1244 2187.31 1243.02 2185.15 1241.07 2183.02 1239.1 2181.78 1236.62 2181.42 1233.62 2180.49 1235.3 2179.11 1236.94 2177.29 1238.51 2175.5 1240.07 2173.47 1241.38 2171.23 1242.45 2169.01 1243.47 2166.75 1244 2164.45 1244ZM2173.07 1236.5C2176.33 1236.5 2179.07 1235.12 2181.29 1232.34L2181.29 1209.53C2176.82 1212.16 2173.31 1214.83 2170.73 1217.58 2168.15 1220.32 2166.87 1224.01 2166.87 1228.64 2166.87 1230.65 2167.46 1232.47 2168.62 1234.08 2169.79 1235.7 2171.27 1236.5 2173.07 1236.5Z" fill="#343A40" fill-rule="evenodd"/><path d="M2238.23 1244C2233.94 1244 2229.8 1243.33 2225.77 1241.99 2221.75 1240.62 2218.43 1238.73 2215.85 1236.32 2213.28 1233.92 2212 1231.14 2212 1228 2212 1225.2 2212.89 1223.04 2214.7 1221.51 2216.5 1219.99 2218.61 1219.22 2221.06 1219.22 2223.87 1219.22 2226.35 1220.13 2228.52 1221.92 2230.72 1223.69 2231.82 1225.71 2231.82 1228 2229.09 1228 2227.74 1229.87 2227.74 1233.62 2227.74 1236.86 2228.81 1239.18 2230.95 1240.57 2233.11 1241.98 2235.32 1242.67 2237.59 1242.67 2238.89 1242.67 2240.31 1242.48 2241.84 1242.08 2243.36 1241.69 2244.68 1240.96 2245.78 1239.89 2246.87 1238.79 2247.42 1237.19 2247.42 1235.09 2247.42 1232.89 2246.61 1230.9 2245 1229.1 2243.37 1227.3 2241.27 1225.62 2238.68 1224.07 2236.12 1222.49 2233.37 1220.91 2230.45 1219.36 2227.51 1217.78 2224.75 1216.14 2222.16 1214.42 2219.6 1212.72 2217.51 1210.86 2215.89 1208.85 2214.27 1206.83 2213.47 1204.57 2213.47 1202.03 2213.47 1198.63 2214.79 1195.9 2217.45 1193.85 2220.1 1191.82 2223.44 1190.33 2227.47 1189.42 2231.5 1188.48 2235.52 1188 2239.55 1188 2243.58 1188 2247.3 1188.58 2250.72 1189.74 2254.13 1190.87 2256.87 1192.39 2258.91 1194.31 2260.95 1196.23 2261.98 1198.46 2261.98 1200.98 2261.98 1203.98 2261.02 1206.08 2259.1 1207.29 2257.17 1208.51 2255.3 1209.12 2253.47 1209.12 2251.11 1209.12 2249.05 1208.41 2247.29 1206.97 2245.55 1205.51 2244.68 1203.86 2244.68 1202.03 2244.68 1202.03 2245 1201.93 2245.64 1201.71 2246.3 1201.51 2246.97 1200.97 2247.61 1200.11 2248.27 1199.23 2248.61 1197.91 2248.61 1196.14 2248.61 1194.03 2247.76 1192.38 2246.05 1191.15 2244.33 1189.94 2242.26 1189.33 2239.83 1189.33 2238.42 1189.33 2236.92 1189.6 2235.34 1190.15 2233.78 1190.67 2232.42 1191.47 2231.27 1192.57 2230.14 1193.65 2229.58 1195.13 2229.58 1197.05 2229.58 1199.06 2230.42 1200.91 2232.14 1202.58 2233.84 1204.23 2236.05 1205.81 2238.77 1207.29 2241.49 1208.79 2244.36 1210.25 2247.38 1211.68 2250.4 1213.12 2253.24 1214.64 2255.89 1216.25 2258.55 1217.87 2260.72 1219.62 2262.44 1221.51 2264.14 1223.41 2265 1225.57 2265 1228 2265 1231.05 2263.65 1233.78 2260.97 1236.18 2258.32 1238.59 2254.95 1240.5 2250.9 1241.9 2246.84 1243.29 2242.62 1244 2238.23 1244Z" fill="#343A40" fill-rule="evenodd"/><path d="M2300.81 1244C2295.52 1244 2290.69 1242.74 2286.31 1240.22 2281.97 1237.67 2278.49 1234.28 2275.9 1230.02 2273.29 1225.74 2272 1221.04 2272 1215.91 2272 1210.88 2273.24 1206.28 2275.76 1202.11 2278.26 1197.93 2281.66 1194.56 2285.95 1192.01 2290.23 1189.43 2294.93 1188.09 2300.04 1188 2304.12 1188 2307.81 1188.64 2311.14 1189.91 2314.46 1191.16 2317.08 1192.85 2319.02 1194.97 2320.98 1197.09 2321.97 1199.51 2321.97 1202.2 2321.97 1204.48 2321.3 1206.58 2319.98 1208.49 2318.64 1210.4 2316.45 1211.36 2313.4 1211.36 2311.07 1211.36 2309.08 1210.62 2307.42 1209.13 2305.8 1207.65 2304.98 1206.21 2304.98 1204.85 2304.98 1204.85 2305.32 1204.69 2306.02 1204.34 2306.71 1203.98 2307.4 1203.29 2308.1 1202.25 2308.8 1201.19 2309.15 1199.66 2309.15 1197.65 2309.15 1195.14 2308.4 1193.13 2306.93 1191.64 2305.44 1190.16 2303.45 1189.41 2300.95 1189.41 2297.32 1189.41 2294.71 1191.18 2293.11 1194.69 2291.5 1198.22 2290.71 1202.73 2290.71 1208.21 2290.71 1217.17 2292.36 1223.95 2295.69 1228.52 2299.01 1233.07 2303.22 1235.35 2308.33 1235.35 2311.98 1235.35 2315.26 1234.05 2318.16 1231.43 2321.06 1228.83 2323.2 1225.49 2324.59 1221.42L2326 1221.65C2324.6 1228.02 2321.8 1233.35 2317.57 1237.63 2313.34 1241.88 2307.75 1244 2300.81 1244Z" fill="#343A40" fill-rule="evenodd"/><path d="M2346.45 1182.55C2343.58 1182.55 2341.13 1181.54 2339.08 1179.54 2337.03 1177.53 2336 1175.1 2336 1172.2 2336 1169.41 2337.03 1167.01 2339.08 1165.01 2341.13 1163 2343.58 1162 2346.45 1162 2349.41 1162 2351.89 1163 2353.92 1165.01 2355.97 1167.01 2357 1169.41 2357 1172.2 2357 1175.1 2355.97 1177.53 2353.92 1179.54 2351.89 1181.54 2349.41 1182.55 2346.45 1182.55ZM2336.7 1243 2336.7 1189.7 2356.21 1189.84 2356.21 1243 2336.7 1243Z" fill="#343A40" fill-rule="evenodd"/><path d="M2394.81 1244C2389.52 1244 2384.69 1242.74 2380.32 1240.22 2375.97 1237.67 2372.49 1234.28 2369.9 1230.02 2367.29 1225.74 2366 1221.04 2366 1215.91 2366 1210.79 2367.29 1206.11 2369.9 1201.89 2372.49 1197.68 2375.97 1194.31 2380.32 1191.78 2384.69 1189.26 2389.52 1188 2394.81 1188 2401.75 1188 2407.43 1189.87 2411.85 1193.6 2416.25 1197.33 2418.46 1202.65 2418.46 1209.54L2384.71 1209.54C2385.04 1217.8 2386.82 1224.17 2390.06 1228.66 2393.32 1233.12 2397.4 1235.35 2402.33 1235.35 2405.98 1235.35 2409.26 1234.05 2412.16 1231.43 2415.06 1228.83 2417.2 1225.49 2418.59 1221.42L2420 1221.65C2418.61 1228.02 2415.8 1233.35 2411.57 1237.63 2407.34 1241.88 2401.75 1244 2394.81 1244ZM2384.71 1208.21 2401.06 1208.21C2401.06 1202.91 2400.52 1198.45 2399.43 1194.83 2398.34 1191.22 2396.54 1189.41 2394.04 1189.41 2391.53 1189.41 2389.35 1191.22 2387.52 1194.83 2385.71 1198.45 2384.76 1202.91 2384.71 1208.21Z" fill="#343A40" fill-rule="evenodd"/><path d="M2430 1243 2430 1189.12 2449.06 1189.12 2449.06 1199.16C2450.36 1197.41 2452.02 1195.61 2454.02 1193.77 2456.02 1191.9 2458.3 1190.3 2460.84 1188.98 2463.41 1187.67 2466.14 1187 2469.03 1187 2473.55 1187 2477.17 1188.2 2479.91 1190.59 2482.63 1192.96 2484 1195.65 2484 1198.65L2484 1243 2464.98 1243 2464.98 1198.24C2464.98 1194.64 2463.98 1192.6 2461.98 1192.07 2459.98 1191.51 2457.76 1192.3 2455.34 1194.41 2454.79 1194.85 2453.8 1195.84 2452.38 1197.41 2450.95 1198.95 2449.85 1200.29 2449.06 1201.41L2449.06 1243 2430 1243Z" fill="#343A40" fill-rule="evenodd"/><path d="M2516.11 1244C2512.09 1244 2508.4 1242.8 2505.06 1240.42 2501.7 1238.03 2499.02 1234.78 2497.02 1230.66 2495.01 1226.55 2494 1221.92 2494 1216.77 2494 1211.58 2495.01 1206.86 2497.02 1202.61 2499.02 1198.35 2501.7 1194.95 2505.06 1192.4 2508.4 1189.84 2512.09 1188.55 2516.11 1188.55 2518.73 1188.55 2521.19 1189.09 2523.51 1190.18 2525.82 1191.27 2527.94 1192.81 2529.86 1194.81L2529.86 1162 2549 1162 2549 1242.68 2529.86 1242.68 2529.86 1238.65C2527.94 1240.55 2525.82 1241.91 2523.51 1242.73 2521.19 1243.57 2518.73 1244 2516.11 1244ZM2522.28 1241.37C2523.85 1241.37 2525.31 1240.8 2526.62 1239.64 2527.92 1238.46 2529.01 1236.88 2529.86 1234.88L2529.86 1198.58C2529.01 1196.58 2527.92 1195.01 2526.62 1193.86 2525.31 1192.68 2523.85 1192.09 2522.28 1192.09 2520.08 1192.09 2518.3 1193.18 2516.93 1195.35 2515.58 1197.51 2514.63 1200.46 2514.06 1204.2 2513.51 1207.92 2513.23 1212.12 2513.23 1216.77 2513.23 1221.38 2513.55 1225.55 2514.19 1229.3 2514.86 1233.02 2515.85 1235.97 2517.16 1238.15 2518.46 1240.3 2520.18 1241.37 2522.28 1241.37Z" fill="#343A40" fill-rule="evenodd"/><path d="M2586.81 1244C2581.52 1244 2576.69 1242.74 2572.32 1240.22 2567.97 1237.67 2564.49 1234.28 2561.9 1230.02 2559.29 1225.74 2558 1221.04 2558 1215.91 2558 1210.79 2559.29 1206.11 2561.9 1201.89 2564.49 1197.68 2567.97 1194.31 2572.32 1191.78 2576.69 1189.26 2581.52 1188 2586.81 1188 2593.76 1188 2599.43 1189.87 2603.85 1193.6 2608.25 1197.33 2610.46 1202.65 2610.46 1209.54L2576.71 1209.54C2577.04 1217.8 2578.82 1224.17 2582.06 1228.66 2585.32 1233.12 2589.4 1235.35 2594.33 1235.35 2597.98 1235.35 2601.26 1234.05 2604.16 1231.43 2607.06 1228.83 2609.2 1225.49 2610.6 1221.42L2612 1221.65C2610.61 1228.02 2607.8 1233.35 2603.57 1237.63 2599.34 1241.88 2593.76 1244 2586.81 1244ZM2576.71 1208.21 2593.06 1208.21C2593.06 1202.91 2592.52 1198.45 2591.44 1194.83 2590.35 1191.22 2588.54 1189.41 2586.04 1189.41 2583.53 1189.41 2581.35 1191.22 2579.52 1194.83 2577.71 1198.45 2576.77 1202.91 2576.71 1208.21Z" fill="#343A40" fill-rule="evenodd"/></g></svg>