<svg width="275" height="80" viewBox="0 0 275 80" fill="none" xmlns="http://www.w3.org/2000/svg">
<path d="M121.229 42.5274V13.7656H134.028L137.972 23.4206C138.527 24.7759 139.306 27.1384 140.191 30.4873H140.624C141.528 27.1384 142.33 24.7345 142.864 23.3999L146.706 13.7637H159.403V42.5255H149.131V33.4239C149.131 31.8012 149.172 30.075 149.377 27.6297L148.967 27.5676L144.016 42.5236H136.62L131.69 27.5676L131.259 27.6297C131.443 30.075 131.506 31.8012 131.506 33.4239V42.5255H121.229V42.5274Z" fill="white"/>
<path d="M247.517 32.0702V31.3926C247.517 24.3052 252.078 20.3389 260.993 20.3389C269.91 20.3389 274.469 24.3033 274.469 31.3926V32.0702C274.469 39.1369 269.888 43.1446 260.993 43.1446C252.078 43.1428 247.517 39.1369 247.517 32.0702ZM263.726 32.7686V30.7149C263.726 27.9816 262.843 26.709 260.993 26.709C259.144 26.709 258.26 27.9835 258.26 30.7149V32.7686C258.26 35.4812 259.143 36.7745 260.993 36.7745C262.843 36.7745 263.726 35.4793 263.726 32.7686Z" fill="white"/>
<path d="M127.249 79.3818L121.229 50.62H131.954L134.069 63.4394C134.399 65.4122 134.685 67.7747 134.851 70.5061H135.261C135.57 67.7935 135.939 65.3087 136.309 63.3359L138.672 50.6181H147.691L150.341 63.3961C150.752 65.3689 151.081 67.7935 151.328 70.5042H151.779C152.005 67.7916 152.273 65.4705 152.561 63.4978L154.409 50.6162H164.783L159.031 79.378H145.739L144.197 71.0783C143.95 69.7644 143.54 66.7638 143.231 63.477H142.8C142.512 66.7638 142.102 69.723 141.855 71.0576L140.355 79.378H127.249V79.3818Z" fill="white"/>
<path d="M190.733 70.6717H174.728C174.811 72.9513 175.777 74.062 177.646 74.062C179.207 74.062 180.071 73.3843 180.276 71.7202L190.671 72.3565C189.993 77.3901 185.575 79.9992 177.605 79.9992C168.586 79.9992 164.066 76.2193 164.066 68.906V68.3921C164.066 61.0167 168.627 57.1953 177.688 57.1953C186.48 57.1953 190.938 60.9131 190.938 67.9403C190.938 68.8439 190.876 69.7474 190.733 70.6717ZM180.255 65.9882V65.9261C180.255 64.0154 179.372 63.1118 177.584 63.1118C175.961 63.1118 175.037 64.0775 174.79 65.9882H180.255Z" fill="white"/>
<path d="M241.094 13.7656H234.821V19.0873V24.4598C233.15 21.8921 230.772 20.5857 227.363 20.5857C221.61 20.5857 218.817 23.9967 218.817 31.2479V32.2342C218.817 39.4045 221.61 42.8964 227.363 42.8964C230.855 42.8964 233.21 41.5448 234.821 38.9922V42.5255H234.842H241.094H245.359V13.7656H241.094ZM232.007 36.7333C230.219 36.7333 229.357 35.4193 229.357 32.6653V30.7339C229.357 27.9611 230.219 26.6246 232.007 26.6246C233.897 26.6246 234.821 28.0421 234.821 30.9391V32.4601C234.821 35.3365 233.897 36.7333 232.007 36.7333Z" fill="white"/>
<path d="M209.427 20.5859C205.704 20.5859 203.029 21.9658 200.964 24.7913V21.2843C200.966 21.177 200.966 21.0678 200.964 20.9549H193.579H190.65V42.5277H193.579H200.964V32.626C200.964 29.3186 202.012 27.47 203.923 27.47C205.34 27.47 205.997 28.2719 205.997 29.9567V42.5295H216.763V27.1425C216.763 22.7225 214.235 20.5859 209.427 20.5859Z" fill="white"/>
<path d="M186.471 20.955H177.893H177.667V30.8566C177.667 34.1641 176.618 35.9919 174.689 35.9919C173.292 35.9919 172.614 35.19 172.614 33.5052V20.9531H162.095V36.3402C162.095 40.7376 164.601 42.8949 169.408 42.8949C173.134 42.8949 175.824 41.5131 177.893 38.6876V41.931C177.887 42.1231 177.887 42.3188 177.893 42.5259H186.471H188.184V20.9531H186.471V20.955Z" fill="white"/>
<path d="M211.091 57.3385C207.669 57.3385 205.286 58.7316 203.612 61.3406V56.8623C203.626 56.563 203.633 56.258 203.633 55.9418V50.6201H203.612H197.957H193.093V79.3819H197.957H203.612V75.8166C205.224 78.3899 207.584 79.7528 211.091 79.7528C216.844 79.7528 219.638 76.2608 219.638 69.0906V68.1042C219.638 60.8512 216.844 57.3385 211.091 57.3385ZM209.1 69.5217C209.1 72.2738 208.238 73.5897 206.449 73.5897C204.559 73.5897 203.635 72.1929 203.635 69.3165V67.7955C203.635 64.8984 204.559 63.481 206.449 63.481C208.236 63.481 209.1 64.8156 209.1 67.5903V69.5217Z" fill="white"/>
<path d="M79.9981 40V26.6667C79.9981 11.9384 68.0597 0 53.3315 0V13.3333C53.3315 28.0615 65.2718 40 79.9981 40C65.2699 40 53.3315 51.9384 53.3315 66.6666V40V26.6667C53.3315 11.9384 41.393 0 26.6648 0H0V40H26.6667V13.3333C26.6667 28.0615 38.6051 40 53.3333 40H26.6667V80H53.3333C68.0616 80 80 68.0615 80 53.3333V40H79.9981Z" fill="white"/>
<path d="M106.665 40C91.9365 40 79.998 51.9384 79.998 66.6666V80C94.7263 80 106.665 68.0615 106.665 53.3333V40Z" fill="white"/>
</svg>
