<svg width="244" height="44" viewBox="0 0 244 44" fill="none" xmlns="http://www.w3.org/2000/svg">
<mask id="mask0_79_10304" style="mask-type:luminance" maskUnits="userSpaceOnUse" x="0" y="0" width="24" height="15">
<path d="M0 0H23.6164V14.0456H0V0Z" fill="white"/>
</mask>
<g mask="url(#mask0_79_10304)">
<path fill-rule="evenodd" clip-rule="evenodd" d="M23.4694 0.0976562C22.6087 0.739672 21.8338 1.47091 21.1463 2.29486C20.457 3.11706 19.871 4.00748 19.3917 4.96789C18.9106 5.92654 18.5467 6.92892 18.3001 7.97329C18.0534 9.01766 17.9309 10.076 17.9327 11.1501V13.9299H0C0 13.4768 0.0227415 13.0237 0.0682251 12.5741C0.111959 12.1228 0.178435 11.6749 0.265903 11.2306C0.35512 10.7863 0.46533 10.3472 0.596532 9.91509C0.727734 9.48124 0.879928 9.0544 1.05312 8.6363C1.2263 8.2182 1.42048 7.80885 1.6339 7.41C1.84732 7.00939 2.07999 6.62103 2.3319 6.24492C2.58381 5.86881 2.85321 5.50494 3.1401 5.15507C3.427 4.80519 3.73139 4.46932 4.05152 4.14918C4.37165 3.82905 4.70753 3.52466 5.0574 3.23776C5.40727 2.95087 5.77114 2.67972 6.14725 2.42956C6.52512 2.17765 6.91347 1.94498 7.31233 1.73156C7.71118 1.51814 8.12053 1.32396 8.53863 1.15077C8.95848 0.977586 9.38357 0.825392 9.81741 0.694189C10.2513 0.561238 10.6903 0.452777 11.1347 0.36356C11.579 0.276091 12.0251 0.209616 12.4764 0.164132C12.9278 0.120398 13.3791 0.0976562 13.8322 0.0976562H23.4694Z" fill="#F8B730"/>
</g>
<mask id="mask1_79_10304" style="mask-type:luminance" maskUnits="userSpaceOnUse" x="20" y="0" width="36" height="44">
<path d="M20.4766 0H55.0789V44H20.4766V0Z" fill="white"/>
</mask>
<g mask="url(#mask1_79_10304)">
<path fill-rule="evenodd" clip-rule="evenodd" d="M55.1689 0.0976562C55.1689 0.528 55.1496 0.956594 55.1094 1.38519C55.0691 1.81378 55.0097 2.24063 54.9292 2.66222C54.8505 3.08557 54.7508 3.50367 54.6318 3.91652C54.5129 4.33112 54.3746 4.73872 54.219 5.13932C54.0615 5.53993 53.8866 5.93178 53.6924 6.31665C53.5 6.69976 53.2883 7.07412 53.0609 7.43974C52.8317 7.8036 52.5868 8.15698 52.3261 8.49985C52.0655 8.84098 51.7873 9.16986 51.4952 9.48649C51.2048 9.80138 50.8987 10.104 50.5785 10.3909C50.2584 10.6796 49.9243 10.9507 49.5797 11.2079C49.2333 11.4633 48.8764 11.7029 48.509 11.9269C48.1417 12.149 47.7638 12.3554 47.3772 12.5426C46.9888 12.7316 46.5952 12.8995 46.1911 13.0517C45.7888 13.2021 45.3794 13.3351 44.9648 13.4471C44.5485 13.5608 44.1304 13.6535 43.7053 13.727C43.282 13.8004 42.8551 13.8547 42.4265 13.8879C42.0661 13.9159 41.704 13.9299 41.3367 13.9299H36.351C36.2303 13.9299 36.1096 13.9421 35.9906 13.9666C35.8717 13.9894 35.7562 14.0243 35.6425 14.0716C35.5305 14.1188 35.4238 14.1748 35.3224 14.243C35.2226 14.3095 35.1282 14.3865 35.0425 14.4722C34.9567 14.5596 34.8798 14.6524 34.8116 14.7538C34.7451 14.8553 34.6873 14.962 34.6419 15.074C34.5946 15.1859 34.5596 15.3014 34.5352 15.4203C34.5124 15.541 34.5002 15.66 34.5002 15.7825V43.9822C34.0471 43.9822 33.5957 43.9595 33.1444 43.9157C32.6931 43.8702 32.2452 43.8038 31.8009 43.7163C31.3566 43.6271 30.9192 43.5186 30.4854 43.3857C30.0515 43.2545 29.6247 43.1023 29.2066 42.9291C28.7885 42.7559 28.3792 42.5617 27.9803 42.3483C27.5797 42.1349 27.1931 41.9022 26.8152 41.6503C26.4391 41.4001 26.0752 41.129 25.7254 40.8421C25.3755 40.5552 25.0396 40.2508 24.7195 39.9307C24.3994 39.6105 24.095 39.2747 23.8081 38.9248C23.5212 38.5749 23.2518 38.211 22.9999 37.8349C22.748 37.4588 22.5153 37.0705 22.3019 36.6699C22.0884 36.271 21.8943 35.8617 21.7211 35.4436C21.5479 35.0255 21.3957 34.5986 21.2645 34.1648C21.1333 33.7327 21.0231 33.2936 20.9339 32.8492C20.8464 32.4049 20.7799 31.9571 20.7344 31.5057C20.6907 31.0562 20.668 30.6031 20.668 30.15V11.1501C20.668 10.788 20.6855 10.4259 20.7222 10.0655C20.7572 9.70691 20.8097 9.34829 20.8814 8.99317C20.9514 8.63805 21.0388 8.28818 21.1438 7.9418C21.2488 7.59543 21.3712 7.2543 21.5094 6.92018C21.6476 6.58605 21.8016 6.25892 21.973 5.94053C22.1427 5.6204 22.3299 5.31076 22.531 5.00987C22.7322 4.70898 22.9474 4.41859 23.1766 4.13869C23.4057 3.85879 23.6489 3.59114 23.9043 3.33573C24.1597 3.07857 24.4291 2.83716 24.7072 2.60624C24.9871 2.37708 25.2775 2.16191 25.5784 1.96073C25.8793 1.75955 26.1907 1.57412 26.5091 1.40268C26.8275 1.23299 27.1546 1.0773 27.4887 0.9391C27.8229 0.8009 28.164 0.678445 28.5104 0.573483C28.8567 0.468521 29.2066 0.381053 29.5617 0.311079C29.9168 0.239355 30.2755 0.186874 30.6358 0.151887C30.9944 0.11515 31.3566 0.0976562 31.7187 0.0976562H55.1689Z" fill="#EC008C"/>
</g>
<path d="M71.3623 41.7683V40.87H67.0821V38.0826H71.283V37.1843H67.0821V34.5819H71.3623V33.6836H66.0781V41.7683H71.3623Z" fill="white"/>
<path d="M72.9648 40.9876C73.5593 41.6217 74.3783 41.9123 75.3295 41.9123C76.8487 41.9123 77.6281 41.1197 77.6281 40.1422C77.6281 38.8475 76.4524 38.5569 75.4352 38.3323C74.6822 38.1474 74.0085 37.9625 74.0085 37.3944C74.0085 36.8792 74.5105 36.5093 75.3031 36.5093C76.0561 36.5093 76.7034 36.8264 77.0468 37.2491L77.4696 36.615C77.0072 36.1526 76.2938 35.7695 75.3031 35.7695C73.916 35.7695 73.1234 36.5489 73.1234 37.4605C73.1234 38.6626 74.2462 38.9268 75.2502 39.1646C76.0296 39.3627 76.743 39.5609 76.743 40.2082C76.743 40.7763 76.2674 41.1726 75.3691 41.1726C74.5633 41.1726 73.8235 40.7895 73.4404 40.3403L72.9648 40.9876Z" fill="white"/>
<path d="M79.3125 38.8343C79.3125 40.5781 80.4882 41.9123 82.232 41.9123C83.302 41.9123 83.9229 41.4764 84.3721 40.8951L83.7776 40.3403C83.3813 40.8555 82.8925 41.1065 82.2848 41.1065C81.0298 41.1065 80.2636 40.1289 80.2636 38.8343C80.2636 37.5397 81.0298 36.5886 82.2848 36.5886C82.8925 36.5886 83.3813 36.8131 83.7776 37.3416L84.3721 36.7867C83.9229 36.2055 83.302 35.7695 82.232 35.7695C80.4882 35.7695 79.3125 37.1038 79.3125 38.8343Z" fill="white"/>
<path d="M91.0474 41.7663V35.9141H90.1491V40.2206C89.8056 40.683 89.1319 41.1057 88.4186 41.1057C87.6259 41.1057 87.1107 40.8019 87.1107 39.7715V35.9141H86.1992V40.0489C86.1992 41.3171 86.8333 41.9116 88.0619 41.9116C88.9338 41.9116 89.7 41.4492 90.1491 40.9472V41.7663H91.0474Z" fill="white"/>
<path d="M93.0703 38.8343C93.0703 40.6706 94.3253 41.9123 96.0558 41.9123C97.007 41.9123 97.7996 41.5953 98.3809 41.014L97.9449 40.4196C97.4826 40.8951 96.8088 41.1594 96.1351 41.1594C94.8801 41.1594 94.1007 40.2346 94.0347 39.1382H98.764V38.9136C98.764 37.1566 97.7203 35.7695 95.9502 35.7695C94.2857 35.7695 93.0703 37.1434 93.0703 38.8343ZM95.937 36.5225C97.2712 36.5225 97.8525 37.6058 97.8657 38.4777H94.0347C94.0743 37.5794 94.6952 36.5225 95.937 36.5225Z" fill="white"/>
<path d="M101.689 41.7683V33.6836H100.777V41.7683H101.689Z" fill="white"/>
<path d="M108.607 41.767V37.7511C108.607 36.3244 107.589 35.7695 106.348 35.7695C105.396 35.7695 104.643 36.0866 104.009 36.7339L104.432 37.368C104.961 36.8131 105.529 36.5622 106.229 36.5622C107.074 36.5622 107.708 37.0113 107.708 37.7907V38.8475C107.233 38.3059 106.572 38.0417 105.766 38.0417C104.776 38.0417 103.719 38.6626 103.719 39.9704C103.719 41.2518 104.776 41.9123 105.766 41.9123C106.559 41.9123 107.219 41.6349 107.708 41.1065V41.767H108.607ZM107.708 40.5253C107.352 41.014 106.731 41.2518 106.097 41.2518C105.251 41.2518 104.657 40.7234 104.657 39.9836C104.657 39.2306 105.251 38.7022 106.097 38.7022C106.731 38.7022 107.352 38.94 107.708 39.4288V40.5253Z" fill="white"/>
<path d="M119.798 41.7683V33.6836H118.887V36.8012C118.411 36.1539 117.698 35.7708 116.905 35.7708C115.373 35.7708 114.303 36.9862 114.303 38.8488C114.303 40.7511 115.386 41.9136 116.905 41.9136C117.737 41.9136 118.451 41.4909 118.887 40.8964V41.7683H119.798ZM118.887 40.1831C118.556 40.6851 117.856 41.1078 117.13 41.1078C115.954 41.1078 115.254 40.1435 115.254 38.8488C115.254 37.5542 115.954 36.5899 117.13 36.5899C117.856 36.5899 118.556 37.0258 118.887 37.5278V40.1831Z" fill="white"/>
<path d="M121.812 38.8343C121.812 40.6706 123.067 41.9123 124.798 41.9123C125.749 41.9123 126.542 41.5953 127.123 41.014L126.687 40.4196C126.225 40.8951 125.551 41.1594 124.877 41.1594C123.622 41.1594 122.843 40.2346 122.777 39.1382H127.506V38.9136C127.506 37.1566 126.463 35.7695 124.692 35.7695C123.028 35.7695 121.812 37.1434 121.812 38.8343ZM124.679 36.5225C126.013 36.5225 126.595 37.6058 126.608 38.4777H122.777C122.816 37.5794 123.437 36.5225 124.679 36.5225Z" fill="white"/>
<path d="M138.347 41.7683V33.6836H137.436V36.8012C136.96 36.1539 136.247 35.7708 135.454 35.7708C133.922 35.7708 132.852 36.9862 132.852 38.8488C132.852 40.7511 133.935 41.9136 135.454 41.9136C136.286 41.9136 137 41.4909 137.436 40.8964V41.7683H138.347ZM137.436 40.1831C137.105 40.6851 136.405 41.1078 135.679 41.1078C134.503 41.1078 133.803 40.1435 133.803 38.8488C133.803 37.5542 134.503 36.5899 135.679 36.5899C136.405 36.5899 137.105 37.0258 137.436 37.5278V40.1831Z" fill="white"/>
<path d="M140.367 38.8343C140.367 40.6706 141.622 41.9123 143.353 41.9123C144.304 41.9123 145.096 41.5953 145.678 41.014L145.242 40.4196C144.779 40.8951 144.106 41.1594 143.432 41.1594C142.177 41.1594 141.398 40.2346 141.332 39.1382H146.061V38.9136C146.061 37.1566 145.017 35.7695 143.247 35.7695C141.583 35.7695 140.367 37.1434 140.367 38.8343ZM143.234 36.5225C144.568 36.5225 145.149 37.6058 145.163 38.4777H141.332C141.371 37.5794 141.992 36.5225 143.234 36.5225Z" fill="white"/>
<path d="M147.559 40.9876C148.153 41.6217 148.972 41.9123 149.923 41.9123C151.442 41.9123 152.222 41.1197 152.222 40.1422C152.222 38.8475 151.046 38.5569 150.029 38.3323C149.276 38.1474 148.602 37.9625 148.602 37.3944C148.602 36.8792 149.104 36.5093 149.897 36.5093C150.65 36.5093 151.297 36.8264 151.641 37.2491L152.063 36.615C151.601 36.1526 150.888 35.7695 149.897 35.7695C148.51 35.7695 147.717 36.5489 147.717 37.4605C147.717 38.6626 148.84 38.9268 149.844 39.1646C150.623 39.3627 151.337 39.5609 151.337 40.2082C151.337 40.7763 150.861 41.1726 149.963 41.1726C149.157 41.1726 148.417 40.7895 148.034 40.3403L147.559 40.9876Z" fill="white"/>
<path d="M158.806 41.767V37.7511C158.806 36.3244 157.789 35.7695 156.547 35.7695C155.596 35.7695 154.843 36.0866 154.209 36.7339L154.631 37.368C155.16 36.8131 155.728 36.5622 156.428 36.5622C157.273 36.5622 157.907 37.0113 157.907 37.7907V38.8475C157.432 38.3059 156.771 38.0417 155.966 38.0417C154.975 38.0417 153.918 38.6626 153.918 39.9704C153.918 41.2518 154.975 41.9123 155.966 41.9123C156.758 41.9123 157.419 41.6349 157.907 41.1065V41.767H158.806ZM157.907 40.5253C157.551 41.014 156.93 41.2518 156.296 41.2518C155.45 41.2518 154.856 40.7234 154.856 39.9836C154.856 39.2306 155.45 38.7022 156.296 38.7022C156.93 38.7022 157.551 38.94 157.907 39.4288V40.5253Z" fill="white"/>
<path d="M162.083 41.768V37.6199C162.348 37.1575 163.101 36.6952 163.669 36.6952C163.814 36.6952 163.92 36.7084 164.025 36.7348V35.7969C163.233 35.7969 162.546 36.246 162.083 36.8669V35.9158H161.172V41.768H162.083Z" fill="white"/>
<path d="M166.626 41.768V37.6199C166.891 37.1575 167.644 36.6952 168.212 36.6952C168.357 36.6952 168.463 36.7084 168.568 36.7348V35.7969C167.776 35.7969 167.089 36.246 166.626 36.8669V35.9158H165.715V41.768H166.626Z" fill="white"/>
<path d="M172.815 41.9123C174.598 41.9123 175.708 40.5253 175.708 38.8343C175.708 37.1434 174.598 35.7695 172.815 35.7695C171.032 35.7695 169.922 37.1434 169.922 38.8343C169.922 40.5253 171.032 41.9123 172.815 41.9123ZM172.815 41.1065C171.573 41.1065 170.873 40.0365 170.873 38.8343C170.873 37.6454 171.573 36.5886 172.815 36.5886C174.07 36.5886 174.757 37.6454 174.757 38.8343C174.757 40.0365 174.07 41.1065 172.815 41.1065Z" fill="white"/>
<path d="M178.646 41.7683V33.6836H177.734V41.7683H178.646Z" fill="white"/>
<path d="M181.915 41.7683V33.6836H181.004V41.7683H181.915Z" fill="white"/>
<path d="M186.827 41.9123C188.61 41.9123 189.72 40.5253 189.72 38.8343C189.72 37.1434 188.61 35.7695 186.827 35.7695C185.043 35.7695 183.934 37.1434 183.934 38.8343C183.934 40.5253 185.043 41.9123 186.827 41.9123ZM186.827 41.1065C185.585 41.1065 184.885 40.0365 184.885 38.8343C184.885 37.6454 185.585 36.5886 186.827 36.5886C188.082 36.5886 188.769 37.6454 188.769 38.8343C188.769 40.0365 188.082 41.1065 186.827 41.1065Z" fill="white"/>
<path d="M196.337 40.8819C196.8 41.5425 197.513 41.9123 198.306 41.9123C199.838 41.9123 200.908 40.7234 200.908 38.8343C200.908 36.932 199.838 35.7695 198.306 35.7695C197.487 35.7695 196.76 36.1923 196.337 36.7867V35.9148H195.426V43.9996H196.337V40.8819ZM199.957 38.8343C199.957 40.1289 199.257 41.1065 198.081 41.1065C197.354 41.1065 196.641 40.6706 196.337 40.1554V37.5133C196.641 37.0113 197.354 36.5886 198.081 36.5886C199.257 36.5886 199.957 37.5397 199.957 38.8343Z" fill="white"/>
<path d="M202.576 38.8343C202.576 40.6706 203.831 41.9123 205.562 41.9123C206.513 41.9123 207.305 41.5953 207.887 41.014L207.451 40.4196C206.988 40.8951 206.315 41.1594 205.641 41.1594C204.386 41.1594 203.607 40.2346 203.541 39.1382H208.27V38.9136C208.27 37.1566 207.226 35.7695 205.456 35.7695C203.792 35.7695 202.576 37.1434 202.576 38.8343ZM205.443 36.5225C206.777 36.5225 207.358 37.6058 207.372 38.4777H203.541C203.58 37.5794 204.201 36.5225 205.443 36.5225Z" fill="white"/>
<path d="M211.193 41.768V37.6199C211.457 37.1575 212.21 36.6952 212.778 36.6952C212.923 36.6952 213.029 36.7084 213.135 36.7348V35.7969C212.342 35.7969 211.655 36.246 211.193 36.8669V35.9158H210.281V41.768H211.193Z" fill="white"/>
<path d="M214.309 40.9876C214.903 41.6217 215.722 41.9123 216.673 41.9123C218.192 41.9123 218.972 41.1197 218.972 40.1422C218.972 38.8475 217.796 38.5569 216.779 38.3323C216.026 38.1474 215.352 37.9625 215.352 37.3944C215.352 36.8792 215.854 36.5093 216.647 36.5093C217.4 36.5093 218.047 36.8264 218.391 37.2491L218.813 36.615C218.351 36.1526 217.638 35.7695 216.647 35.7695C215.26 35.7695 214.467 36.5489 214.467 37.4605C214.467 38.6626 215.59 38.9268 216.594 39.1646C217.373 39.3627 218.087 39.5609 218.087 40.2082C218.087 40.7763 217.611 41.1726 216.713 41.1726C215.907 41.1726 215.167 40.7895 214.784 40.3403L214.309 40.9876Z" fill="white"/>
<path d="M223.553 41.9123C225.337 41.9123 226.446 40.5253 226.446 38.8343C226.446 37.1434 225.337 35.7695 223.553 35.7695C221.77 35.7695 220.66 37.1434 220.66 38.8343C220.66 40.5253 221.77 41.9123 223.553 41.9123ZM223.553 41.1065C222.311 41.1065 221.611 40.0365 221.611 38.8343C221.611 37.6454 222.311 36.5886 223.553 36.5886C224.808 36.5886 225.495 37.6454 225.495 38.8343C225.495 40.0365 224.808 41.1065 223.553 41.1065Z" fill="white"/>
<path d="M233.333 41.767V37.6586C233.333 36.3904 232.698 35.7695 231.47 35.7695C230.598 35.7695 229.805 36.2847 229.396 36.7603V35.9148H228.484V41.767H229.396V37.4869C229.726 37.0245 230.413 36.5886 231.126 36.5886C231.906 36.5886 232.434 36.9056 232.434 37.936V41.767H233.333Z" fill="white"/>
<path d="M240.259 41.767V37.7511C240.259 36.3244 239.242 35.7695 238 35.7695C237.049 35.7695 236.296 36.0866 235.662 36.7339L236.084 37.368C236.613 36.8131 237.181 36.5622 237.881 36.5622C238.727 36.5622 239.361 37.0113 239.361 37.7907V38.8475C238.885 38.3059 238.225 38.0417 237.419 38.0417C236.428 38.0417 235.371 38.6626 235.371 39.9704C235.371 41.2518 236.428 41.9123 237.419 41.9123C238.211 41.9123 238.872 41.6349 239.361 41.1065V41.767H240.259ZM239.361 40.5253C239.004 41.014 238.383 41.2518 237.749 41.2518C236.903 41.2518 236.309 40.7234 236.309 39.9836C236.309 39.2306 236.903 38.7022 237.749 38.7022C238.383 38.7022 239.004 38.94 239.361 39.4288V40.5253Z" fill="white"/>
<path d="M243.533 41.7683V33.6836H242.621V41.7683H243.533Z" fill="white"/>
<path d="M75.0544 23.4893V2.65654C73.5914 2.65654 72.2968 2.94386 71.1706 3.51521C70.051 4.07995 69.1758 4.86267 68.5417 5.86665C67.9142 6.86404 67.6038 8.01664 67.6038 9.32777H67.2207V2.27344H88.6214V9.32777H88.2383C88.2383 8.01664 87.9213 6.86404 87.2872 5.86665C86.6597 4.86267 85.7845 4.07995 84.6583 3.51521C83.5388 2.94386 82.2442 2.65654 80.7745 2.65654V23.4893H75.0544Z" fill="white"/>
<path d="M100.971 7.69141C101.727 7.69141 102.457 7.83342 103.164 8.11414C103.867 8.39816 104.438 8.85392 104.881 9.48801C105.33 10.1155 105.555 10.9412 105.555 11.9716C105.555 12.5099 105.456 13.0416 105.264 13.57C105.079 14.0984 104.762 14.541 104.313 14.8911C103.87 15.2444 103.273 15.4195 102.516 15.4195C101.757 15.4195 101.162 15.1685 100.733 14.6665C100.31 14.1645 100.072 13.6724 100.02 13.1869C100.02 13.1869 100.181 13.0812 100.508 12.8699C100.842 12.6519 101.162 12.3348 101.473 11.9187C101.79 11.5059 101.948 10.994 101.948 10.3863C101.948 9.80506 101.777 9.30967 101.433 8.89355C101.096 8.47082 100.654 8.25945 100.099 8.25945C99.3855 8.25945 98.7316 8.50384 98.1437 8.98602C97.5525 9.46159 97.0406 10.1188 96.6113 10.9544V23.491H91.0762V8.03488H96.6113V10.2014C97.0869 9.39224 97.6747 8.77135 98.3815 8.33871C99.0948 7.90938 99.9568 7.69141 100.971 7.69141Z" fill="white"/>
<path d="M111.605 23.8702C110.29 23.8702 109.204 23.5168 108.342 22.8134C107.487 22.1 107.061 21.238 107.061 20.2241C107.061 19.2466 107.302 18.4638 107.787 17.8727C108.279 17.2749 108.963 16.7729 109.835 16.3667C110.707 15.9638 111.714 15.5543 112.86 15.1381C114.012 14.7253 115.244 14.2002 116.559 13.5661V10.8316C116.559 9.95308 116.314 9.27935 115.832 8.81038C115.357 8.34472 114.765 8.11023 114.062 8.11023C113.382 8.11023 112.784 8.28857 112.265 8.63865C111.744 8.99202 111.486 9.61291 111.486 10.5013C111.486 11.0826 111.585 11.5251 111.79 11.8223C111.991 12.1229 112.193 12.3243 112.398 12.43C112.599 12.5291 112.701 12.5753 112.701 12.5753C112.701 12.9287 112.497 13.3217 112.094 13.7511C111.687 14.1837 111.182 14.4248 110.574 14.4776C109.587 14.5767 108.864 14.3323 108.408 13.7511C107.959 13.1698 107.734 12.5291 107.734 11.8223C107.734 11.0396 108.015 10.3395 108.58 9.72189C109.151 9.10761 109.921 8.61222 110.892 8.24234C111.869 7.87245 112.939 7.6875 114.102 7.6875C116.522 7.6875 118.491 8.30839 120.007 9.55016C120.667 10.0786 121.176 10.7094 121.539 11.4392C121.909 12.1724 122.094 13.0179 122.094 13.9756V20.2638C122.094 20.6006 122.127 20.8979 122.2 21.1621C122.279 21.4263 122.444 21.5584 122.702 21.5584C122.824 21.5584 122.933 21.4857 123.032 21.3338C123.138 21.1753 123.204 20.8186 123.23 20.2638L123.534 20.3034C123.534 21.2909 123.184 22.133 122.49 22.8266C121.793 23.5201 120.951 23.8702 119.967 23.8702C119.085 23.8702 118.329 23.5862 117.695 23.0247C117.067 22.4534 116.704 21.7367 116.598 20.8714C116.324 21.3569 115.918 21.8292 115.383 22.2849C114.855 22.7341 114.26 23.1139 113.6 23.421C112.946 23.7183 112.282 23.8702 111.605 23.8702ZM114.141 21.7037C115.099 21.7037 115.905 21.3041 116.559 20.5015V13.9096C115.244 14.6692 114.211 15.442 113.454 16.2346C112.695 17.0272 112.318 18.094 112.318 19.4315C112.318 20.0128 112.49 20.5379 112.833 21.0035C113.177 21.4725 113.613 21.7037 114.141 21.7037Z" fill="white"/>
<path d="M133.189 23.8702C131.953 23.8702 130.758 23.6753 129.595 23.2889C128.433 22.8926 127.475 22.3477 126.729 21.6508C125.989 20.9573 125.619 20.1548 125.619 19.2466C125.619 18.4374 125.877 17.8132 126.399 17.3707C126.917 16.9314 127.528 16.7102 128.235 16.7102C129.044 16.7102 129.761 16.9711 130.388 17.4896C131.022 18.0015 131.339 18.586 131.339 19.2466C130.553 19.2466 130.163 19.7882 130.163 20.8714C130.163 21.8061 130.471 22.4765 131.088 22.8794C131.712 23.2856 132.35 23.4871 133.004 23.4871C133.38 23.4871 133.79 23.4309 134.232 23.3154C134.672 23.2031 135.051 22.9917 135.368 22.6813C135.685 22.3642 135.844 21.9018 135.844 21.2942C135.844 20.6601 135.609 20.0854 135.144 19.5636C134.675 19.0451 134.067 18.5596 133.321 18.1105C132.581 17.6547 131.788 17.199 130.943 16.7498C130.097 16.294 129.298 15.8185 128.552 15.3231C127.812 14.831 127.208 14.2927 126.742 13.7114C126.273 13.1302 126.042 12.4763 126.042 11.7431C126.042 10.7589 126.425 9.96959 127.191 9.37843C127.957 8.79057 128.922 8.36123 130.084 8.09702C131.247 7.82621 132.409 7.6875 133.572 7.6875C134.734 7.6875 135.808 7.85593 136.795 8.18949C137.779 8.51645 138.569 8.95569 139.16 9.51053C139.748 10.0654 140.045 10.7094 140.045 11.4392C140.045 12.3045 139.767 12.9122 139.213 13.2623C138.658 13.6156 138.116 13.7907 137.588 13.7907C136.907 13.7907 136.313 13.5859 135.804 13.1698C135.302 12.7471 135.051 12.2715 135.051 11.7431C135.051 11.7431 135.144 11.7134 135.329 11.6506C135.52 11.5912 135.712 11.4359 135.897 11.1882C136.088 10.9339 136.187 10.5508 136.187 10.0389C136.187 9.43127 135.94 8.95239 135.448 8.59901C134.952 8.24894 134.354 8.0706 133.651 8.0706C133.245 8.0706 132.812 8.14986 132.356 8.30839C131.907 8.46031 131.514 8.69149 131.181 9.00854C130.854 9.31898 130.692 9.74832 130.692 10.3032C130.692 10.8844 130.936 11.4194 131.432 11.9016C131.924 12.3772 132.561 12.8329 133.347 13.2623C134.13 13.6949 134.959 14.1176 135.831 14.5305C136.703 14.9466 137.522 15.3858 138.288 15.8515C139.054 16.3205 139.682 16.8258 140.177 17.3707C140.669 17.9189 140.917 18.5431 140.917 19.2466C140.917 20.1284 140.527 20.9177 139.754 21.6112C138.988 22.3081 138.017 22.8596 136.848 23.2625C135.676 23.6654 134.457 23.8702 133.189 23.8702Z" fill="white"/>
<path d="M151.408 23.8737C149.865 23.8737 148.455 23.5072 147.18 22.7773C145.912 22.0375 144.898 21.0533 144.142 19.8182C143.382 18.5764 143.006 17.2124 143.006 15.7229C143.006 14.2632 143.369 12.929 144.102 11.7202C144.832 10.5049 145.823 9.52729 147.075 8.78751C148.323 8.04113 149.694 7.65142 151.183 7.625C152.372 7.625 153.449 7.80995 154.42 8.17984C155.387 8.54312 156.153 9.0319 156.718 9.64618C157.29 10.2638 157.577 10.9639 157.577 11.7466C157.577 12.4071 157.382 13.0148 156.996 13.5697C156.606 14.1245 155.968 14.4019 155.08 14.4019C154.4 14.4019 153.819 14.1872 153.336 13.7546C152.861 13.3253 152.623 12.9091 152.623 12.5128C152.623 12.5128 152.722 12.4666 152.927 12.3675C153.128 12.2618 153.33 12.0604 153.534 11.7598C153.736 11.4527 153.838 11.0069 153.838 10.4256C153.838 9.69572 153.62 9.11447 153.191 8.68183C152.758 8.25249 152.177 8.03452 151.447 8.03452C150.39 8.03452 149.628 8.54642 149.162 9.56692C148.693 10.5907 148.462 11.8986 148.462 13.4904C148.462 16.0895 148.944 18.0546 149.915 19.3822C150.883 20.7033 152.111 21.3638 153.601 21.3638C154.664 21.3638 155.622 20.9873 156.467 20.2277C157.313 19.4714 157.937 18.5037 158.343 17.3214L158.753 17.3875C158.346 19.2369 157.527 20.7825 156.295 22.0243C155.06 23.2595 153.432 23.8737 151.408 23.8737Z" fill="white"/>
<path d="M164.543 5.96178C163.731 5.96178 163.037 5.67115 162.456 5.08989C161.875 4.50864 161.584 3.80188 161.584 2.96303C161.584 2.15389 161.875 1.45705 162.456 0.87579C163.037 0.294534 163.731 0.00390625 164.543 0.00390625C165.379 0.00390625 166.082 0.294534 166.657 0.87579C167.238 1.45705 167.529 2.15389 167.529 2.96303C167.529 3.80188 167.238 4.50864 166.657 5.08989C166.082 5.67115 165.379 5.96178 164.543 5.96178ZM161.782 23.4919V8.0358L167.304 8.07543V23.4919H161.782Z" fill="white"/>
<path d="M178.775 23.8737C177.233 23.8737 175.822 23.5072 174.548 22.7773C173.279 22.0375 172.265 21.0533 171.509 19.8182C170.75 18.5764 170.373 17.2124 170.373 15.7229C170.373 14.2368 170.75 12.8794 171.509 11.6542C172.265 10.4322 173.279 9.45463 174.548 8.72146C175.822 7.99159 177.233 7.625 178.775 7.625C180.799 7.625 182.454 8.16662 183.742 9.24987C185.027 10.3331 185.671 11.8754 185.671 13.8735H175.829C175.925 16.2712 176.443 18.1206 177.388 19.4218C178.339 20.7165 179.531 21.3638 180.968 21.3638C182.031 21.3638 182.989 20.9873 183.834 20.2277C184.68 19.4714 185.304 18.5037 185.71 17.3214L186.12 17.3875C185.714 19.2369 184.895 20.7825 183.663 22.0243C182.427 23.2595 180.799 23.8737 178.775 23.8737ZM175.829 13.4904H180.598C180.598 11.9514 180.439 10.6568 180.122 9.60655C179.805 8.55963 179.28 8.03452 178.55 8.03452C177.817 8.03452 177.183 8.55963 176.648 9.60655C176.12 10.6568 175.845 11.9514 175.829 13.4904Z" fill="white"/>
<path d="M188.959 23.4935V8.03736H194.494V10.9172C194.871 10.4152 195.353 9.90002 195.934 9.37161C196.515 8.83659 197.176 8.37753 197.916 7.99773C198.662 7.62124 199.455 7.42969 200.293 7.42969C201.605 7.42969 202.658 7.77316 203.451 8.4601C204.243 9.14043 204.64 9.90993 204.64 10.7719V23.4935H199.118V10.653C199.118 9.62261 198.827 9.03475 198.246 8.88283C197.665 8.7243 197.021 8.94888 196.317 9.55656C196.159 9.68205 195.871 9.96608 195.458 10.4152C195.042 10.8578 194.722 11.2409 194.494 11.5645V23.4935H188.959Z" fill="white"/>
<path d="M213.884 23.875C212.722 23.875 211.655 23.5249 210.687 22.8314C209.716 22.1379 208.943 21.19 208.362 19.9912C207.781 18.7956 207.49 17.4482 207.49 15.9488C207.49 14.4362 207.781 13.0623 208.362 11.8272C208.943 10.5854 209.716 9.59463 210.687 8.85485C211.655 8.10846 212.722 7.73197 213.884 7.73197C214.64 7.73197 215.354 7.89049 216.024 8.20754C216.691 8.52459 217.306 8.97374 217.86 9.555V0.00390625H223.395V23.4919H217.86V22.3162C217.306 22.871 216.691 23.2673 216.024 23.5051C215.354 23.7495 214.64 23.875 213.884 23.875ZM215.667 23.1088C216.123 23.1088 216.543 22.9437 216.922 22.6068C217.299 22.2634 217.613 21.801 217.86 21.2197V10.6515C217.613 10.0702 217.299 9.61444 216.922 9.27758C216.543 8.93411 216.123 8.76237 215.667 8.76237C215.033 8.76237 214.518 9.07942 214.122 9.71352C213.732 10.341 213.455 11.1997 213.29 12.2895C213.131 13.3728 213.052 14.5947 213.052 15.9488C213.052 17.2897 213.144 18.505 213.329 19.5949C213.521 20.6781 213.808 21.5368 214.188 22.1709C214.564 22.7984 215.06 23.1088 215.667 23.1088Z" fill="white"/>
<path d="M234.634 23.8737C233.092 23.8737 231.682 23.5072 230.407 22.7773C229.139 22.0375 228.125 21.0533 227.369 19.8182C226.609 18.5764 226.232 17.2124 226.232 15.7229C226.232 14.2368 226.609 12.8794 227.369 11.6542C228.125 10.4322 229.139 9.45463 230.407 8.72146C231.682 7.99159 233.092 7.625 234.634 7.625C236.659 7.625 238.313 8.16662 239.601 9.24987C240.886 10.3331 241.53 11.8754 241.53 13.8735H231.688C231.784 16.2712 232.303 18.1206 233.247 19.4218C234.198 20.7165 235.39 21.3638 236.827 21.3638C237.891 21.3638 238.848 20.9873 239.694 20.2277C240.539 19.4714 241.163 18.5037 241.57 17.3214L241.979 17.3875C241.573 19.2369 240.754 20.7825 239.522 22.0243C238.287 23.2595 236.659 23.8737 234.634 23.8737ZM231.688 13.4904H236.457C236.457 11.9514 236.299 10.6568 235.982 9.60655C235.665 8.55963 235.139 8.03452 234.41 8.03452C233.676 8.03452 233.042 8.55963 232.507 9.60655C231.979 10.6568 231.705 11.9514 231.688 13.4904Z" fill="white"/>
</svg>